# xmcd CD database file
#
# Track frame offsets:
#	150
#	20410
#	41287
#	69680
#	88755
#	104362
#	137625
#	149105
#	162675
#
# Disc length: 2408 seconds
#
# Revision: 0
# Processed by: cddbd v1.5.2PL0 Copyright (c) Steve Scherf et al.
# Submitted via: CDex 1.70beta3
#
DISCID=83096609
DTITLE=MIST ON THE RIDGE - MIST ON THE RIDGE
DYEAR=1900
DGENRE=New Age
TTITLE0=AUTUMN:MIST ON THE RIDGE
TTITLE1=ENDLESS DREAM
TTITLE2=THE STONEMASON'S YARD
TTITLE3=DANDELION DREAMS
TTITLE4=THE BUTTERFLY
TTITLE5=EXCEPT FROM THE MATTHEW PASSION, IHR TOCHTER, HELFT MIR KLAGEN
TTITLE6=LIGHTNNING SCHEME
TTITLE7=CINDERELLA'S LAST WALTZ
TTITLE8=HEATHER CARPETS
EXTD=
EXTT0=
EXTT1=
EXTT2=
EXTT3=
EXTT4=
EXTT5=
EXTT6=
EXTT7=
EXTT8=
PLAYORDER=
